<?xml version="1.0" encoding="UTF-8"?>
<svg width="23px" height="25px" viewBox="0 0 23 25" version="1.1" xmlns="http://www.w3.org/2000/svg" xmlns:xlink="http://www.w3.org/1999/xlink">
    <!-- Generator: Sketch 62 (91390) - https://sketch.com -->
    <title>Delete</title>
    <desc>Created with Sketch.</desc>
    <g id="Page-1" stroke="none" stroke-width="1" fill="none" fill-rule="evenodd">
        <g id="Workspace---Scan-List" transform="translate(-239.000000, -391.000000)" fill="#FFFFFF" fill-rule="nonzero">
            <path d="M248.78378,391 C248.139146,391 247.523248,391.254752 247.066892,391.711108 L246.531125,392.246875 L240.29675,392.246875 C239.847082,392.240516 239.428824,392.476768 239.202134,392.865166 C238.975444,393.253565 238.975444,393.733935 239.202134,394.122334 C239.428824,394.510732 239.847082,394.746984 240.29675,394.740625 L260.24675,394.740625 C260.696418,394.746984 261.114676,394.510732 261.341366,394.122334 C261.568056,393.733935 261.568056,393.253565 261.341366,392.865166 C261.114676,392.476768 260.696418,392.240516 260.24675,392.246875 L254.012375,392.246875 L253.476608,391.711108 C253.021498,391.254752 252.404354,391 251.75972,391 L248.78378,391 Z M240.752152,397.234375 L242.656558,413.772516 C242.821146,415.006922 243.884009,415.9375 245.128391,415.9375 L255.412674,415.9375 C256.657055,415.9375 257.721107,415.008402 257.886942,413.762774 L259.791349,397.234375 L240.752152,397.234375 Z" id="Delete"></path>
        </g>
    </g>
</svg>