<?xml version="1.0" encoding="UTF-8" standalone="no"?>
<!DOCTYPE svg PUBLIC "-//W3C//DTD SVG 1.1//EN" "http://www.w3.org/Graphics/SVG/1.1/DTD/svg11.dtd">
<svg width="100%" height="100%" viewBox="0 0 221 145" version="1.1" >
    <g transform="matrix(1,0,0,1,-558.256,-1500.2)">
        <g transform="matrix(1,0,0,1,0,1336.34)">
            <g transform="matrix(1,0,0,1,0,-1336.34)">
                <path d="M586.527,1585.38L635.531,1536.37C651.216,1520.69 675.919,1519.46 693.019,1532.68C694.127,1533.56 694.808,1534.87 694.889,1536.28C694.971,1537.69 694.446,1539.07 693.447,1540.07C677.72,1555.86 617.366,1616.22 617.366,1616.22C617.366,1616.22 620.75,1619.6 624.08,1622.93C625.367,1624.22 625.853,1626.1 625.348,1627.85C624.843,1629.6 623.428,1630.94 621.653,1631.34C607.071,1634.66 578.198,1641.22 564.364,1644.36C562.689,1644.74 560.935,1644.24 559.721,1643.02C558.506,1641.81 558,1640.06 558.38,1638.38C561.525,1624.55 568.088,1595.67 571.403,1581.09C571.806,1579.32 573.143,1577.9 574.892,1577.39C576.641,1576.89 578.526,1577.38 579.814,1578.66C583.144,1581.99 586.527,1585.38 586.527,1585.38ZM750.189,1559.31L701.186,1608.32C685.5,1624 660.798,1625.23 643.697,1612.01C642.589,1611.13 641.909,1609.82 641.827,1608.41C641.745,1607 642.27,1605.62 643.269,1604.62C658.997,1588.83 719.35,1528.47 719.35,1528.47C719.35,1528.47 715.967,1525.09 712.637,1521.76C711.349,1520.47 710.863,1518.59 711.368,1516.84C711.873,1515.09 713.288,1513.75 715.064,1513.35C729.646,1510.03 758.518,1503.47 772.352,1500.33C774.027,1499.94 775.781,1500.45 776.996,1501.67C778.211,1502.88 778.717,1504.63 778.336,1506.31C775.191,1520.14 768.628,1549.02 765.314,1563.6C764.91,1565.37 763.574,1566.79 761.824,1567.29C760.075,1567.8 758.19,1567.31 756.903,1566.03C753.573,1562.69 750.189,1559.31 750.189,1559.31Z"/>
            </g>
        </g>
    </g>
</svg>
