<?xml version="1.0" encoding="UTF-8" standalone="no"?>
<!DOCTYPE svg PUBLIC "-//W3C//DTD SVG 1.1//EN" "http://www.w3.org/Graphics/SVG/1.1/DTD/svg11.dtd">
<svg width="100%" height="100%" viewBox="0 0 250 250" version="1.1">
    <g transform="matrix(1,0,0,1,-111.347,-1447.82)">
        <g transform="matrix(1,0,0,1,0,1336.34)">
            <g transform="matrix(1,0,0,1,0,-1336.34)">
                <path d="M230.868,1507.5L230.868,1452.82C230.868,1450.06 233.108,1447.82 235.868,1447.82C238.628,1447.82 240.868,1450.06 240.868,1452.82L240.868,1507.5C272.719,1509.94 298.152,1535.46 300.458,1567.34L355.388,1567.34C358.148,1567.34 360.388,1569.59 360.388,1572.34C360.388,1575.1 358.148,1577.34 355.388,1577.34L300.416,1577.34C297.86,1608.98 272.533,1634.22 240.868,1636.64L240.868,1691.87C240.868,1694.62 238.628,1696.87 235.868,1696.87C233.108,1696.87 230.868,1694.62 230.868,1691.87L230.868,1636.64C199.197,1634.22 173.872,1608.97 171.32,1577.34L116.347,1577.34C113.588,1577.34 111.347,1575.1 111.347,1572.34C111.347,1569.59 113.588,1567.34 116.347,1567.34L171.278,1567.34C173.584,1535.46 199.016,1509.94 230.868,1507.5ZM290.377,1577.34L240.868,1577.34L240.868,1626.61C267.016,1624.23 287.879,1603.45 290.377,1577.34ZM181.359,1577.34C183.86,1603.45 204.722,1624.23 230.868,1626.61L230.868,1577.34L181.359,1577.34ZM240.868,1517.54L240.868,1567.34L290.427,1567.34C288.168,1540.98 267.196,1519.92 240.868,1517.54ZM230.868,1517.54C204.539,1519.92 183.568,1540.98 181.309,1567.34L230.868,1567.34L230.868,1517.54Z"/>
            </g>
        </g>
    </g>
</svg>
