<svg width="18" height="18" viewBox="0 0 18 18" fill="white" xmlns="http://www.w3.org/2000/svg">
<path d="M17.3609 15.4753L10.7612 8.8756L17.3609 2.27594C17.8813 1.75551 17.8813 0.910753 17.3609 0.390323C16.8405 -0.130108 15.9957 -0.130108 15.4753 0.390323L8.8756 6.98999L2.27594 0.390323C1.75551 -0.130108 0.910753 -0.130108 0.390323 0.390323C-0.130108 0.910753 -0.130108 1.75551 0.390323 2.27594L6.98999 8.8756L0.390323 15.4753C-0.130108 15.9957 -0.130108 16.8405 0.390323 17.3609C0.910753 17.8813 1.75551 17.8813 2.27594 17.3609L8.8756 10.7612L15.4753 17.3609C15.9957 17.8813 16.8405 17.8813 17.3609 17.3609C17.8813 16.8405 17.8813 15.9957 17.3609 15.4753Z"/>
</svg>
